<svg width="44" height="24" viewBox="0 0 44 24" fill="none" xmlns="http://www.w3.org/2000/svg">
<path d="M43.0607 10.9393C43.6464 11.5251 43.6464 12.4749 43.0607 13.0607L33.5147 22.6066C32.9289 23.1924 31.9792 23.1924 31.3934 22.6066C30.8076 22.0208 30.8076 21.0711 31.3934 20.4853L39.8787 12L31.3934 3.51472C30.8076 2.92893 30.8076 1.97919 31.3934 1.3934C31.9792 0.807611 32.9289 0.807611 33.5147 1.3934L43.0607 10.9393ZM2 13.5C1.17157 13.5 0.5 12.8284 0.5 12C0.5 11.1716 1.17157 10.5 2 10.5V13.5ZM42 13.5H2V10.5H42V13.5Z" fill="white"/>
</svg>
