<svg width="1464" height="358" viewBox="0 0 1464 358" fill="none" xmlns="http://www.w3.org/2000/svg">
<path d="M164.5 223.5V270C164.5 298.333 157.5 320.167 143.5 335.5C129.833 350.5 109.5 358 82.5 358C55.5 358 35 350.5 21 335.5C7.33333 320.167 0.500001 298.333 0.500001 270V88C0.500001 59.6667 7.33333 38 21 23C35 7.66666 55.5 -2.14577e-06 82.5 -2.14577e-06C109.5 -2.14577e-06 129.833 7.66666 143.5 23C157.5 38 164.5 59.6667 164.5 88V122H112.5V84.5C112.5 71.8333 109.833 63 104.5 58C99.5 52.6667 92.6667 50 84 50C75.3333 50 68.3333 52.6667 63 58C58 63 55.5 71.8333 55.5 84.5V273.5C55.5 286.167 58 295 63 300C68.3333 305 75.3333 307.5 84 307.5C92.6667 307.5 99.5 305 104.5 300C109.833 295 112.5 286.167 112.5 273.5V223.5H164.5ZM382.871 354C382.204 351.667 381.538 349.5 380.871 347.5C380.204 345.5 379.538 343 378.871 340C378.538 337 378.204 333.167 377.871 328.5C377.871 323.833 377.871 318 377.871 311V256C377.871 239.667 375.038 228.167 369.371 221.5C363.704 214.833 354.538 211.5 341.871 211.5H322.871V354H267.871V3.99998H350.871C379.538 3.99998 400.204 10.6666 412.871 24C425.871 37.3333 432.371 57.5 432.371 84.5V112C432.371 148 420.371 171.667 396.371 183C410.371 188.667 419.871 198 424.871 211C430.204 223.667 432.871 239.167 432.871 257.5V311.5C432.871 320.167 433.204 327.833 433.871 334.5C434.538 340.833 436.204 347.333 438.871 354H382.871ZM322.871 54V161.5H344.371C354.704 161.5 362.704 158.833 368.371 153.5C374.371 148.167 377.371 138.5 377.371 124.5V90C377.371 77.3333 375.038 68.1667 370.371 62.5C366.038 56.8333 359.038 54 349.371 54H322.871ZM594.043 151.5H669.543V201.5H594.043V304H689.043V354H539.043V3.99998H689.043V54H594.043V151.5ZM848.125 151.5H923.625V201.5H848.125V304H943.125V354H793.125V3.99998H943.125V54H848.125V151.5ZM1128.21 3.99998C1155.87 3.99998 1176.37 11.3333 1189.71 26C1203.37 40.6666 1210.21 62.1666 1210.21 90.5V136C1210.21 164.333 1203.37 185.833 1189.71 200.5C1176.37 215.167 1155.87 222.5 1128.21 222.5H1102.21V354H1047.21V3.99998H1128.21ZM1102.21 54V172.5H1128.21C1136.87 172.5 1143.54 170.167 1148.21 165.5C1152.87 160.833 1155.21 152.167 1155.21 139.5V87C1155.21 74.3333 1152.87 65.6667 1148.21 61C1143.54 56.3333 1136.87 54 1128.21 54H1102.21ZM1301.13 88C1301.13 59.6667 1307.79 38 1321.12 23C1334.79 7.66666 1355.13 -2.14577e-06 1382.13 -2.14577e-06C1409.13 -2.14577e-06 1429.29 7.66666 1442.63 23C1456.29 38 1463.13 59.6667 1463.13 88V99H1411.13V84.5C1411.13 71.8333 1408.63 63 1403.63 58C1398.96 52.6667 1392.29 50 1383.63 50C1374.96 50 1368.13 52.6667 1363.13 58C1358.46 63 1356.13 71.8333 1356.13 84.5C1356.13 96.5 1358.79 107.167 1364.13 116.5C1369.46 125.5 1376.13 134.167 1384.13 142.5C1392.13 150.5 1400.63 158.667 1409.63 167C1418.96 175 1427.63 183.833 1435.63 193.5C1443.63 203.167 1450.29 214.167 1455.63 226.5C1460.96 238.833 1463.63 253.333 1463.63 270C1463.63 298.333 1456.63 320.167 1442.63 335.5C1428.96 350.5 1408.63 358 1381.63 358C1354.63 358 1334.13 350.5 1320.13 335.5C1306.46 320.167 1299.63 298.333 1299.63 270V248.5H1351.63V273.5C1351.63 286.167 1354.13 295 1359.13 300C1364.46 305 1371.46 307.5 1380.13 307.5C1388.79 307.5 1395.63 305 1400.63 300C1405.96 295 1408.63 286.167 1408.63 273.5C1408.63 261.5 1405.96 251 1400.63 242C1395.29 232.667 1388.63 224 1380.63 216C1372.63 207.667 1363.96 199.5 1354.63 191.5C1345.63 183.167 1337.13 174.167 1329.13 164.5C1321.13 154.833 1314.46 143.833 1309.13 131.5C1303.79 119.167 1301.13 104.667 1301.13 88Z" fill="white"/>
</svg>
