<svg width="1487" height="358" viewBox="0 0 1487 358" fill="none" xmlns="http://www.w3.org/2000/svg">
<path d="M55 354H1.41561e-06V3.99998H55V154H117.5V3.99998H173.5V354H117.5V204H55V354ZM338.379 151.5H413.879V201.5H338.379V304H433.379V354H283.379V3.99998H433.379V54H338.379V151.5ZM652.461 354C651.794 351.667 651.128 349.5 650.461 347.5C649.794 345.5 649.128 343 648.461 340C648.128 337 647.794 333.167 647.461 328.5C647.461 323.833 647.461 318 647.461 311V256C647.461 239.667 644.628 228.167 638.961 221.5C633.294 214.833 624.128 211.5 611.461 211.5H592.461V354H537.461V3.99998H620.461C649.128 3.99998 669.794 10.6666 682.461 24C695.461 37.3333 701.961 57.5 701.961 84.5V112C701.961 148 689.961 171.667 665.961 183C679.961 188.667 689.461 198 694.461 211C699.794 223.667 702.461 239.167 702.461 257.5V311.5C702.461 320.167 702.794 327.833 703.461 334.5C704.128 340.833 705.794 347.333 708.461 354H652.461ZM592.461 54V161.5H613.961C624.294 161.5 632.294 158.833 637.961 153.5C643.961 148.167 646.961 138.5 646.961 124.5V90C646.961 77.3333 644.628 68.1667 639.961 62.5C635.628 56.8333 628.628 54 618.961 54H592.461ZM859.133 273.5C859.133 286.167 861.633 295.167 866.633 300.5C871.966 305.5 878.966 308 887.633 308C896.299 308 903.133 305.5 908.133 300.5C913.466 295.167 916.133 286.167 916.133 273.5V84.5C916.133 71.8333 913.466 63 908.133 58C903.133 52.6667 896.299 50 887.633 50C878.966 50 871.966 52.6667 866.633 58C861.633 63 859.133 71.8333 859.133 84.5V273.5ZM804.133 88C804.133 59.6667 811.299 38 825.633 23C839.966 7.66666 860.633 -2.14577e-06 887.633 -2.14577e-06C914.633 -2.14577e-06 935.299 7.66666 949.633 23C963.966 38 971.133 59.6667 971.133 88V270C971.133 298.333 963.966 320.167 949.633 335.5C935.299 350.5 914.633 358 887.633 358C860.633 358 839.966 350.5 825.633 335.5C811.299 320.167 804.133 298.333 804.133 270V88ZM1131.88 151.5H1207.38V201.5H1131.88V304H1226.88V354H1076.88V3.99998H1226.88V54H1131.88V151.5ZM1323.96 88C1323.96 59.6667 1330.62 38 1343.96 23C1357.62 7.66666 1377.96 -2.14577e-06 1404.96 -2.14577e-06C1431.96 -2.14577e-06 1452.12 7.66666 1465.46 23C1479.12 38 1485.96 59.6667 1485.96 88V99H1433.96V84.5C1433.96 71.8333 1431.46 63 1426.46 58C1421.79 52.6667 1415.12 50 1406.46 50C1397.79 50 1390.96 52.6667 1385.96 58C1381.29 63 1378.96 71.8333 1378.96 84.5C1378.96 96.5 1381.62 107.167 1386.96 116.5C1392.29 125.5 1398.96 134.167 1406.96 142.5C1414.96 150.5 1423.46 158.667 1432.46 167C1441.79 175 1450.46 183.833 1458.46 193.5C1466.46 203.167 1473.12 214.167 1478.46 226.5C1483.79 238.833 1486.46 253.333 1486.46 270C1486.46 298.333 1479.46 320.167 1465.46 335.5C1451.79 350.5 1431.46 358 1404.46 358C1377.46 358 1356.96 350.5 1342.96 335.5C1329.29 320.167 1322.46 298.333 1322.46 270V248.5H1374.46V273.5C1374.46 286.167 1376.96 295 1381.96 300C1387.29 305 1394.29 307.5 1402.96 307.5C1411.62 307.5 1418.46 305 1423.46 300C1428.79 295 1431.46 286.167 1431.46 273.5C1431.46 261.5 1428.79 251 1423.46 242C1418.12 232.667 1411.46 224 1403.46 216C1395.46 207.667 1386.79 199.5 1377.46 191.5C1368.46 183.167 1359.96 174.167 1351.96 164.5C1343.96 154.833 1337.29 143.833 1331.96 131.5C1326.62 119.167 1323.96 104.667 1323.96 88Z" fill="white"/>
</svg>
