<svg width="1164" height="358" viewBox="0 0 1164 358" fill="none" xmlns="http://www.w3.org/2000/svg">
<path d="M1.41561e-06 3.99998H55V354H1.41561e-06V3.99998ZM149.215 3.99998H319.215V54H261.715V354H206.715V54H149.215V3.99998ZM468.438 151.5H543.938V201.5H468.438V304H563.438V354H413.438V3.99998H563.438V54H468.438V151.5ZM784.02 252.5L821.52 3.99998H898.02V354H846.02V103L808.02 354H756.02L715.02 106.5V354H667.02V3.99998H743.52L784.02 252.5ZM1001.03 88C1001.03 59.6667 1007.69 38 1021.03 23C1034.69 7.66666 1055.03 -2.14577e-06 1082.03 -2.14577e-06C1109.03 -2.14577e-06 1129.19 7.66666 1142.53 23C1156.19 38 1163.03 59.6667 1163.03 88V99H1111.03V84.5C1111.03 71.8333 1108.53 63 1103.53 58C1098.86 52.6667 1092.19 50 1083.53 50C1074.86 50 1068.03 52.6667 1063.03 58C1058.36 63 1056.03 71.8333 1056.03 84.5C1056.03 96.5 1058.69 107.167 1064.03 116.5C1069.36 125.5 1076.03 134.167 1084.03 142.5C1092.03 150.5 1100.53 158.667 1109.53 167C1118.86 175 1127.53 183.833 1135.53 193.5C1143.53 203.167 1150.19 214.167 1155.53 226.5C1160.86 238.833 1163.53 253.333 1163.53 270C1163.53 298.333 1156.53 320.167 1142.53 335.5C1128.86 350.5 1108.53 358 1081.53 358C1054.53 358 1034.03 350.5 1020.03 335.5C1006.36 320.167 999.527 298.333 999.527 270V248.5H1051.53V273.5C1051.53 286.167 1054.03 295 1059.03 300C1064.36 305 1071.36 307.5 1080.03 307.5C1088.69 307.5 1095.53 305 1100.53 300C1105.86 295 1108.53 286.167 1108.53 273.5C1108.53 261.5 1105.86 251 1100.53 242C1095.19 232.667 1088.53 224 1080.53 216C1072.53 207.667 1063.86 199.5 1054.53 191.5C1045.53 183.167 1037.03 174.167 1029.03 164.5C1021.03 154.833 1014.36 143.833 1009.03 131.5C1003.69 119.167 1001.03 104.667 1001.03 88Z" fill="white"/>
</svg>
