<svg width="1827" height="288" viewBox="0 0 1827 288" fill="none" xmlns="http://www.w3.org/2000/svg">
<path d="M94.2 202.8L124.2 3.99998H185.4V284H143.8V83.2L113.4 284H71.8L39 86V284H0.6V3.99998H61.8L94.2 202.8ZM317.406 122H377.806V162H317.406V244H393.406V284H273.406V3.99998H393.406V44H317.406V122ZM604.272 179.6V216.8C604.272 239.467 598.672 256.933 587.472 269.2C576.539 281.2 560.272 287.2 538.672 287.2C517.072 287.2 500.672 281.2 489.472 269.2C478.539 256.933 473.072 239.467 473.072 216.8V71.2C473.072 48.5333 478.539 31.2 489.472 19.2C500.672 6.93332 517.072 0.799998 538.672 0.799998C560.272 0.799998 576.539 6.93332 587.472 19.2C598.672 31.2 604.272 48.5333 604.272 71.2V98.4H562.672V68.4C562.672 58.2667 560.539 51.2 556.272 47.2C552.272 42.9333 546.805 40.8 539.872 40.8C532.939 40.8 527.339 42.9333 523.072 47.2C519.072 51.2 517.072 58.2667 517.072 68.4V219.6C517.072 229.733 519.072 236.8 523.072 240.8C527.339 244.8 532.939 246.8 539.872 246.8C546.805 246.8 552.272 244.8 556.272 240.8C560.539 236.8 562.672 229.733 562.672 219.6V179.6H604.272ZM730.969 284H686.969V3.99998H730.969V124H780.969V3.99998H825.769V284H780.969V164H730.969V284ZM1056.07 284H1011.67L1004.07 233.2H950.072L942.472 284H902.072L946.872 3.99998H1011.27L1056.07 284ZM955.672 195.2H998.072L976.872 53.6L955.672 195.2ZM1171.76 81.2V284H1132.16V3.99998H1187.36L1232.56 171.6V3.99998H1271.76V284H1226.56L1171.76 81.2ZM1359.27 3.99998H1403.27V284H1359.27V3.99998ZM1619.04 179.6V216.8C1619.04 239.467 1613.44 256.933 1602.24 269.2C1591.3 281.2 1575.04 287.2 1553.44 287.2C1531.84 287.2 1515.44 281.2 1504.24 269.2C1493.3 256.933 1487.84 239.467 1487.84 216.8V71.2C1487.84 48.5333 1493.3 31.2 1504.24 19.2C1515.44 6.93332 1531.84 0.799998 1553.44 0.799998C1575.04 0.799998 1591.3 6.93332 1602.24 19.2C1613.44 31.2 1619.04 48.5333 1619.04 71.2V98.4H1577.44V68.4C1577.44 58.2667 1575.3 51.2 1571.04 47.2C1567.04 42.9333 1561.57 40.8 1554.64 40.8C1547.7 40.8 1542.1 42.9333 1537.84 47.2C1533.84 51.2 1531.84 58.2667 1531.84 68.4V219.6C1531.84 229.733 1533.84 236.8 1537.84 240.8C1542.1 244.8 1547.7 246.8 1554.64 246.8C1561.57 246.8 1567.04 244.8 1571.04 240.8C1575.3 236.8 1577.44 229.733 1577.44 219.6V179.6H1619.04ZM1696.13 71.2C1696.13 48.5333 1701.47 31.2 1712.13 19.2C1723.07 6.93332 1739.33 0.799998 1760.93 0.799998C1782.53 0.799998 1798.67 6.93332 1809.33 19.2C1820.27 31.2 1825.73 48.5333 1825.73 71.2V80H1784.13V68.4C1784.13 58.2667 1782.13 51.2 1778.13 47.2C1774.4 42.9333 1769.07 40.8 1762.13 40.8C1755.2 40.8 1749.73 42.9333 1745.73 47.2C1742 51.2 1740.13 58.2667 1740.13 68.4C1740.13 78 1742.27 86.5333 1746.53 94C1750.8 101.2 1756.13 108.133 1762.53 114.8C1768.93 121.2 1775.73 127.733 1782.93 134.4C1790.4 140.8 1797.33 147.867 1803.73 155.6C1810.13 163.333 1815.47 172.133 1819.73 182C1824 191.867 1826.13 203.467 1826.13 216.8C1826.13 239.467 1820.53 256.933 1809.33 269.2C1798.4 281.2 1782.13 287.2 1760.53 287.2C1738.93 287.2 1722.53 281.2 1711.33 269.2C1700.4 256.933 1694.93 239.467 1694.93 216.8V199.6H1736.53V219.6C1736.53 229.733 1738.53 236.8 1742.53 240.8C1746.8 244.8 1752.4 246.8 1759.33 246.8C1766.27 246.8 1771.73 244.8 1775.73 240.8C1780 236.8 1782.13 229.733 1782.13 219.6C1782.13 210 1780 201.6 1775.73 194.4C1771.47 186.933 1766.13 180 1759.73 173.6C1753.33 166.933 1746.4 160.4 1738.93 154C1731.73 147.333 1724.93 140.133 1718.53 132.4C1712.13 124.667 1706.8 115.867 1702.53 106C1698.27 96.1333 1696.13 84.5333 1696.13 71.2Z" fill="white"/>
</svg>
