<svg width="128" height="96" viewBox="0 0 128 96" fill="none" xmlns="http://www.w3.org/2000/svg">
<path fill-rule="evenodd" clip-rule="evenodd" d="M62.0336 14.2919C62.2914 14.4065 62.5278 14.4852 62.7999 14.3277C62.671 14.1701 62.5636 14.0054 62.4347 13.8837C61.7758 13.2392 61.1384 12.5731 60.4438 11.9644C59.2048 10.883 57.9659 9.8016 56.6768 8.7847C55.2517 7.66034 53.7191 6.67922 52.1006 5.86281C51.1625 5.39015 50.2171 4.92464 49.2289 4.5594C48.1904 4.17268 47.1091 3.85759 46.0277 3.62125C44.9893 3.39208 43.9294 3.28466 42.8694 3.15575C41.9384 3.04116 40.9931 2.91943 40.055 2.90511C38.6083 2.8857 37.1559 2.91878 35.7079 2.95172C35.5503 2.9553 35.3928 2.95888 35.2353 2.96239C34.3759 2.98387 33.5094 3.04831 32.65 3.09129C32.3635 3.10562 32.0771 3.12711 31.7906 3.15575C30.9957 3.23453 30.2079 3.32763 29.4201 3.4064C28.8615 3.46369 28.2958 3.4995 27.7372 3.54247C26.6415 3.6284 25.5529 3.73583 24.4644 3.78596C23.8584 3.81017 23.2524 3.77801 22.6465 3.74585C22.5363 3.74005 22.4261 3.73418 22.3159 3.72867C21.8289 3.70719 21.342 3.68571 20.8621 3.59261C19.7593 3.38493 18.6492 3.19156 17.5678 2.88361C15.9923 2.43243 14.4454 1.90249 12.8914 1.38686C12.3543 1.20782 11.8243 0.978649 11.2944 0.770969V4.24429C12.2509 4.24429 13.2049 4.24352 14.1574 4.24274C16.0576 4.24109 17.9513 4.2395 19.8452 4.24429C20.3465 4.25145 20.8478 4.28727 21.3491 4.30875C22.2801 4.35172 23.2183 4.38752 24.1564 4.43765C24.7795 4.47346 25.4097 4.51644 26.0327 4.56657C27.0497 4.64535 28.0666 4.72413 29.0764 4.82439C30.036 4.91749 30.9957 5.0249 31.9481 5.14665C33.1728 5.31136 34.4045 5.44744 35.6148 5.67661C37.3336 5.99888 39.0595 6.34262 40.7568 6.78664C43.1989 7.43117 45.6266 8.1545 48.0472 8.885C49.4867 9.3218 50.9047 9.816 52.3155 10.3316C54.0486 10.969 55.7745 11.6421 57.4861 12.3368C59.0115 12.9599 60.5225 13.633 62.0336 14.2919ZM116.046 4.17268V0.770969C115.172 1.1004 114.32 1.42267 113.446 1.72345C111.419 2.46825 109.35 3.06265 107.23 3.44221C106.249 3.61409 105.253 3.74299 104.265 3.76448C103.298 3.78739 102.325 3.73706 101.352 3.68665C101.108 3.67404 100.864 3.66136 100.62 3.6499C100.097 3.62842 99.5671 3.57113 99.0371 3.521C98.2637 3.44222 97.4974 3.34195 96.7311 3.27034C96.1439 3.21305 95.5495 3.17725 94.9551 3.13428C93.8307 3.04835 92.7135 2.91226 91.5892 2.89078C89.985 2.86214 88.3737 2.90511 86.7695 2.94807C85.9817 2.96955 85.2011 3.04833 84.4205 3.14143C83.3678 3.27034 82.3079 3.39209 81.2623 3.59978C79.5793 3.93637 77.9608 4.50928 76.4068 5.23976C74.5305 6.12062 72.7544 7.17337 71.1073 8.4266C69.9471 9.3075 68.8299 10.2528 67.7056 11.1767C67.3904 11.4345 67.104 11.7209 66.8104 12.0002C66.0298 12.7593 65.2563 13.5113 64.4757 14.2704C64.4972 14.3062 64.5187 14.3492 64.5402 14.385C64.6046 14.3802 64.6712 14.3819 64.7385 14.3834C64.871 14.3866 65.0035 14.3897 65.1131 14.3421C66.7388 13.6545 68.3429 12.9098 69.9829 12.2581C72.2173 11.37 74.466 10.5178 76.7362 9.7157C78.5624 9.0712 80.4244 8.4911 82.2864 7.94682C84.0982 7.41687 85.9244 6.92989 87.7649 6.49304C89.8203 6.00606 91.89 5.57636 93.9954 5.31854C95.2774 5.16815 96.5449 4.96763 97.8269 4.81725C98.7722 4.70983 99.7247 4.63104 100.677 4.55943C101.651 4.48781 102.632 4.42336 103.606 4.36607C104.523 4.30878 105.44 4.25866 106.356 4.23717C107.76 4.20136 109.164 4.17987 110.567 4.17271C111.704 4.16791 112.843 4.16956 113.982 4.17114C114.55 4.17193 115.12 4.17271 115.688 4.17271L116.046 4.17268ZM7.10488 4.75993C7.26959 4.73845 7.44862 4.70264 7.6205 4.69548C8.89525 4.66684 10.17 4.64535 11.4447 4.63103C13.364 4.60955 15.2833 4.58089 17.2026 4.56657C18.0978 4.56657 19.0001 4.59522 19.8953 4.63103C20.9266 4.66684 21.965 4.7098 22.9963 4.75993C24.0347 4.81722 25.0803 4.87452 26.1187 4.95329C27.0998 5.02491 28.0809 5.11085 29.0621 5.21111C30.0074 5.30421 30.9599 5.38299 31.898 5.54054C33.8531 5.85565 35.801 6.19224 37.7418 6.56464C40.2841 7.05162 42.7763 7.71048 45.2471 8.4768C47.1449 9.064 49.0427 9.6441 50.9118 10.3101C53.1176 11.0907 55.3018 11.9358 57.4789 12.7951C58.8826 13.3466 60.2576 13.9768 61.7185 14.607C61.6674 14.6198 61.6254 14.6335 61.5895 14.6452C61.5251 14.6662 61.4807 14.6807 61.4392 14.6714C60.6729 14.5354 59.9067 14.3921 59.1475 14.2561C58.238 14.0914 57.3214 13.9338 56.4118 13.7763C55.5023 13.6187 54.5857 13.454 53.6761 13.2964C52.7451 13.1317 51.807 12.9742 50.876 12.8095C50.0023 12.6591 49.1357 12.5087 48.262 12.3511C47.4313 12.2079 46.6077 12.0575 45.777 11.9071C44.6097 11.6923 43.4424 11.4703 42.2679 11.2697C40.9716 11.0406 39.6682 10.8401 38.372 10.6109C37.1116 10.3889 35.8512 10.1382 34.5836 9.9091C33.2873 9.6799 31.9839 9.4794 30.6877 9.2502C29.4273 9.0282 28.1669 8.7775 26.8993 8.5484C25.3667 8.2762 23.827 8.0327 22.2944 7.7606C20.7833 7.49563 19.2723 7.20201 17.7612 6.93704C16.465 6.70787 15.1616 6.50735 13.8653 6.27818C12.6049 6.05617 11.3445 5.80551 10.0769 5.57635C9.15306 5.41164 8.22922 5.26843 7.30539 5.11803C7.10487 5.11087 7.03326 5.00342 7.10488 4.75993ZM120.235 4.77426C120.3 5.03923 120.192 5.11086 119.985 5.14667C118.925 5.32571 117.872 5.51906 116.812 5.70526C115.881 5.86997 114.943 6.02037 114.012 6.17792C113.253 6.30683 112.494 6.43572 111.742 6.57179C110.811 6.7365 109.88 6.9084 108.949 7.08028C107.781 7.29513 106.614 7.51712 105.44 7.71764C104.143 7.94681 102.84 8.1473 101.544 8.3765C100.283 8.5985 99.0228 8.8492 97.7552 9.0783C96.3659 9.3218 94.9765 9.551 93.5872 9.7945C92.291 10.0236 91.0019 10.2671 89.7057 10.4963C88.3092 10.7398 86.9055 10.9689 85.5019 11.2124C84.3489 11.413 83.203 11.635 82.0572 11.8427C81.0331 12.0217 80.0019 12.1864 78.9778 12.3726C77.8104 12.5803 76.6431 12.8023 75.4686 13.01C74.1724 13.2391 72.869 13.4397 71.5728 13.6688C70.3195 13.8908 69.0734 14.1343 67.8201 14.3635C67.1684 14.4853 66.5167 14.5855 65.8579 14.7001C65.8156 14.7053 65.7741 14.6991 65.6924 14.6868C65.6631 14.6824 65.628 14.6772 65.5857 14.6714C66.2589 14.3635 66.839 14.077 67.4334 13.8264C68.7296 13.2821 70.033 12.745 71.3436 12.2294C72.8189 11.6493 74.3013 11.0835 75.7981 10.5536C77.3091 10.0165 78.8274 9.4722 80.3671 9.0139C82.6874 8.3192 85.0221 7.65318 87.371 7.05878C88.9895 6.65057 90.6439 6.3641 92.2838 6.06332C93.444 5.85564 94.6185 5.6981 95.7858 5.5477C96.7383 5.41879 97.6979 5.31853 98.6576 5.22543C99.7246 5.12517 100.792 5.04639 101.859 4.96762C102.561 4.91749 103.262 4.87452 103.964 4.83871C104.988 4.78858 106.012 4.7456 107.029 4.70979C107.903 4.68115 108.784 4.65968 109.658 4.64536C111.563 4.61672 113.475 4.58806 115.38 4.5809C116.311 4.5809 117.242 4.61672 118.173 4.64536C118.738 4.65969 119.304 4.68115 119.87 4.70979C119.985 4.70979 120.106 4.75278 120.235 4.77426ZM60.7517 15.0009C60.5082 15.2301 60.2791 15.4664 60.0284 15.6597C59.921 15.7457 59.7419 15.7958 59.6059 15.7672C58.2452 15.538 56.8845 15.2873 55.5238 15.0439C53.5043 14.6858 51.4847 14.3349 49.4652 13.9696C48.083 13.7261 46.7008 13.4612 45.3187 13.2177C43.7861 12.9455 42.2464 12.6877 40.7138 12.4156C39.4534 12.1936 38.2001 11.9501 36.9469 11.7281C35.7867 11.5204 34.6194 11.3342 33.452 11.1265C32.299 10.926 31.1532 10.704 30.0002 10.5034C29.0764 10.3387 28.1525 10.1955 27.2215 10.0308C26.3263 9.8732 25.4383 9.7085 24.5503 9.551C23.6193 9.3863 22.6811 9.2287 21.743 9.064C20.8478 8.9064 19.9598 8.7417 19.0717 8.5842C18.1407 8.4195 17.2026 8.2619 16.2716 8.0972C15.3836 7.93963 14.4884 7.77492 13.6003 7.61737C12.6693 7.45266 11.7312 7.2951 10.8002 7.13039C9.91217 6.97284 9.01698 6.80812 8.12896 6.65057C7.19796 6.48586 6.2598 6.3283 5.3288 6.16359C4.6771 6.049 4.01824 5.94158 3.36654 5.81267C3.27344 5.79834 3.20184 5.70525 3.07293 5.61931C3.56708 5.46892 4.00393 5.41163 4.34768 5.01775C23.118 8.3478 41.9456 11.6779 60.7517 15.0009ZM66.5525 15.0009C85.3873 11.6779 104.215 8.3622 123.05 5.03923C123.15 5.35434 123.737 5.64079 124.153 5.56918C124.272 5.77106 124.115 5.80622 124.001 5.83128C123.986 5.83472 123.972 5.83788 123.959 5.84132C123.558 5.92725 123.15 5.98455 122.742 6.05617C121.832 6.21372 120.916 6.37845 120.006 6.536C119.075 6.70071 118.137 6.85825 117.206 7.02296C116.311 7.18051 115.423 7.34524 114.535 7.50279C113.604 7.6675 112.665 7.82507 111.734 7.98978C110.839 8.1473 109.951 8.312 109.056 8.4624C108.111 8.6271 107.165 8.7847 106.22 8.9566L103.578 9.4292L100.742 9.9234L98.0989 10.3961C97.1894 10.5608 96.2728 10.7255 95.3632 10.8902C94.3033 11.0764 93.2506 11.2698 92.1907 11.456C91.2669 11.6135 90.343 11.7639 89.4192 11.9286C88.524 12.0862 87.636 12.2509 86.7408 12.4084C85.8313 12.5732 84.9146 12.7307 83.9979 12.8883C83.0813 13.053 82.1717 13.2105 81.2551 13.3752C80.3384 13.54 79.4289 13.6975 78.5122 13.8551C77.5955 14.0198 76.686 14.1773 75.7693 14.342C74.8527 14.5068 73.9432 14.6643 73.0265 14.8219C72.1241 14.9794 71.2218 15.1298 70.3194 15.2945C69.4171 15.4521 68.5147 15.6239 67.6124 15.7815C67.5336 15.7958 67.419 15.76 67.3546 15.7099C67.0968 15.4807 66.839 15.2444 66.5525 15.0009ZM68.3071 91.9513V91.4715C68.3071 66.929 68.3071 42.3793 68.2999 17.8369C68.2999 17.5432 68.2427 17.2496 68.1997 16.87C87.8723 13.3967 107.588 9.9234 127.339 6.44289V81.1732V81.1882C127.339 81.4224 127.339 81.5606 127.01 81.61C125.8 81.7891 124.604 82.0183 123.401 82.2331C122.376 82.4193 121.352 82.6198 120.328 82.7989C119.168 83.0065 118.001 83.1856 116.841 83.3933C115.817 83.5723 114.792 83.7728 113.768 83.9519C112.845 84.1166 111.921 84.2598 110.997 84.4174C110.109 84.5749 109.214 84.7396 108.326 84.8972C107.395 85.0619 106.456 85.2194 105.525 85.3842C104.652 85.5345 103.785 85.6849 102.912 85.8425C102.095 85.9857 101.279 86.1361 100.455 86.2865C99.2735 86.5014 98.099 86.7234 96.9173 86.9239C95.6211 87.1459 94.3177 87.3536 93.0215 87.5828C91.761 87.8048 90.5006 88.0554 89.233 88.2846C87.7005 88.5567 86.1607 88.8002 84.621 89.0723C83.1099 89.3373 81.5989 89.6309 80.0878 89.8959C78.6913 90.1466 77.2876 90.3686 75.884 90.6121C74.8599 90.7911 73.8358 90.9988 72.8117 91.185C71.6587 91.3855 70.5057 91.5789 69.3527 91.7722C69.0233 91.8295 68.6867 91.8868 68.3071 91.9513ZM59.0258 91.9584C58.1664 91.808 57.35 91.6577 56.5336 91.5144C55.7387 91.3712 54.9366 91.2351 54.1417 91.0991C53.2107 90.9344 52.2725 90.7768 51.3415 90.6121C50.4606 90.4617 49.5798 90.3041 48.6989 90.1466C47.7464 89.9819 46.7939 89.81 45.8415 89.6453L43.1989 89.1726C42.2535 89.0079 41.3082 88.8503 40.3701 88.6785C39.482 88.5209 38.5869 88.349 37.6988 88.1915C36.7893 88.0268 35.8726 87.8692 34.9631 87.7117C34.0536 87.5541 33.1369 87.3894 32.2274 87.2247C31.3179 87.06 30.4012 86.9024 29.4917 86.7449C28.5894 86.5873 27.687 86.4369 26.7847 86.2794C25.9754 86.1361 25.1662 85.9929 24.3641 85.8425C23.1824 85.6277 22.008 85.4057 20.8263 85.2051C19.5301 84.9831 18.2267 84.7754 16.9305 84.5534C15.67 84.3314 14.4096 84.0808 13.142 83.8516C11.6095 83.5795 10.0697 83.336 8.53 83.0639C7.01892 82.7989 5.50785 82.5053 3.99678 82.2403C2.74352 82.0183 1.49024 81.8034 0.229825 81.5958C0.0436248 81.5671 -0.00650697 81.4883 0.000653034 81.3236C0.00545303 81.2756 0.00380469 81.2241 0.00222469 81.174C0.00143469 81.1496 0.000653034 81.1253 0.000653034 81.1016V6.44292C0.680993 6.55751 1.32553 6.67209 1.97722 6.78667C2.92254 6.95138 3.86786 7.11609 4.80601 7.28081C5.69404 7.43836 6.58923 7.60308 7.47725 7.76779C8.38676 7.9325 9.30345 8.0901 10.213 8.2476C11.1225 8.4052 12.0391 8.5699 12.9487 8.7274C13.8797 8.8921 14.8178 9.0497 15.7488 9.2144C16.6368 9.372 17.532 9.5367 18.42 9.6942C19.351 9.8589 20.2892 10.0237 21.2202 10.1812C21.9865 10.3101 22.7599 10.439 23.5262 10.5751C24.4572 10.7398 25.3882 10.9117 26.3192 11.0836C27.4865 11.2984 28.6538 11.5204 29.8283 11.7209C31.1246 11.9501 32.428 12.1506 33.7242 12.3798C34.9774 12.6018 36.2236 12.8453 37.4768 13.0673C38.4006 13.232 39.3245 13.3752 40.2483 13.5328C41.1363 13.6904 42.0315 13.8551 42.9196 14.0126C43.8291 14.1773 44.7457 14.3349 45.6553 14.4924C46.5648 14.65 47.4814 14.8147 48.391 14.9723C49.322 15.137 50.2601 15.2945 51.1911 15.4592C51.9574 15.5882 52.7308 15.717 53.4971 15.8531C54.4209 16.0178 55.3376 16.1969 56.2614 16.3616C57.1495 16.5191 58.0447 16.6624 58.9399 16.8199C59.0186 16.8343 59.0902 16.8844 59.1189 16.8987C59.0903 17.3212 59.0401 17.7151 59.0401 18.1018C59.0354 34.3737 59.037 50.6487 59.0385 66.9225V66.9555V66.9884V67.0214C59.0393 75.174 59.0401 83.3267 59.0401 91.4786C59.0258 91.629 59.0258 91.7794 59.0258 91.9584ZM67.1469 16.6838C64.8266 18.0374 62.5206 18.0517 60.1788 16.7555C61.3246 14.7932 65.3351 14.342 67.1469 16.6838ZM59.7992 17.4716C62.406 18.8466 64.934 18.818 67.4835 17.443C67.4979 17.5647 67.5265 17.7079 67.5265 17.8512V32.8689C67.5265 52.6776 67.5265 72.4863 67.5337 92.295C67.5337 93.1902 67.1183 93.8634 66.438 94.3361C64.8338 95.4389 63.1222 95.4891 61.3963 94.6583C60.6157 94.2859 60.0499 93.67 59.835 92.8035C59.8064 92.6818 59.8064 92.5529 59.8064 92.424V17.887C59.7992 17.7509 59.7992 17.6292 59.7992 17.4716Z" fill="white"/>
</svg>
