<svg width="420" height="100" viewBox="0 0 420 100" fill="none" xmlns="http://www.w3.org/2000/svg">
<path d="M223.673 83.9273C223.882 84.6392 224.112 85.4422 224.364 86.3364C224.615 87.2306 224.884 88.1552 225.171 89.1102C225.457 90.0652 225.748 91.0202 226.043 91.9752C226.339 92.9301 226.625 93.8157 226.903 94.6317C227.129 93.7462 227.359 92.7825 227.593 91.7408C227.828 90.699 228.049 89.6224 228.257 88.5112C228.466 87.4 228.67 86.2931 228.869 85.1905C229.069 84.0879 229.256 83.0244 229.429 82H233.649C233.041 85.0212 232.342 88.0858 231.552 91.1938C230.762 94.3018 229.907 97.2536 228.987 100.049H225.262C224.654 98.3822 224.064 96.6328 223.491 94.801C222.918 92.9692 222.354 91.133 221.798 89.2925C221.243 91.133 220.687 92.9692 220.131 94.801C219.576 96.6328 218.994 98.3822 218.386 100.049H214.662C213.742 97.2536 212.886 94.3018 212.096 91.1938C211.306 88.0858 210.607 85.0212 210 82H214.401C214.575 83.0244 214.766 84.0879 214.974 85.1905C215.183 86.2931 215.4 87.4 215.625 88.5112C215.851 89.6225 216.081 90.699 216.316 91.7408C216.55 92.7826 216.789 93.7462 217.032 94.6317C217.344 93.7809 217.648 92.878 217.943 91.9231C218.239 90.9681 218.525 90.0131 218.803 89.0581C219.081 88.1032 219.337 87.1829 219.571 86.2974C219.806 85.4118 220.018 84.6218 220.209 83.9273H223.673Z" fill="white"/>
<path d="M272.98 82H277.043V100.049H272.98V82Z" fill="white"/>
<path d="M324.976 100.049C324.611 99.4587 324.181 98.8206 323.686 98.1348C323.192 97.4489 322.653 96.7631 322.072 96.0772C321.49 95.3914 320.887 94.7316 320.261 94.0978C319.636 93.464 319.011 92.9041 318.386 92.4179V100.049H314.323V82H318.386V88.8237C319.445 87.7125 320.509 86.5535 321.577 85.3467C322.645 84.14 323.639 83.0244 324.559 82H329.377C328.144 83.4585 326.907 84.8649 325.666 86.2192C324.424 87.5736 323.118 88.9366 321.746 90.3083C323.187 91.5063 324.581 92.9301 325.926 94.5797C327.272 96.2292 328.561 98.0523 329.794 100.049H324.976Z" fill="white"/>
<path d="M362.644 82H366.707V100.049H362.644V82Z" fill="white"/>
<path d="M188.592 1.86816H166.663V65.9857H188.481C211.803 65.9857 225.726 53.6835 225.726 33.0771C225.726 12.9521 212.539 1.86816 188.592 1.86816ZM184.154 63.1332H179.449V4.72186H186.373C202.898 4.72186 211.276 14.4122 211.276 33.5243C211.276 53.7252 202.658 63.1332 184.154 63.1332Z" fill="white"/>
<path d="M269.511 0.973328C247.719 0.973328 234.709 13.309 234.709 33.9714C234.709 54.5778 247.719 66.8799 269.511 66.8799C291.373 66.8799 304.425 54.5778 304.425 33.9714C304.425 13.309 291.373 0.973328 269.511 0.973328ZM269.516 64.2053C256.198 64.1033 249.159 53.6487 249.159 33.972C249.159 8.90882 260.226 3.64793 269.506 3.64793C282.825 3.74929 289.864 14.235 289.864 33.972C289.864 58.96 278.796 64.2053 269.516 64.2053Z" fill="white"/>
<path d="M303.123 1.86816V4.72186H328.537V65.9863H341.322V4.72186H366.736V1.86816H303.123Z" fill="white"/>
<path d="M393.079 1.86816H385.868L359.031 65.9863H362.762L371.883 43.9845H397.358L406.598 65.9857H420L393.079 1.86816ZM373.067 41.1302L384.615 13.3942L396.171 41.1302H373.067Z" fill="white"/>
<path fill-rule="evenodd" clip-rule="evenodd" d="M62.0336 16.2919C62.2914 16.4065 62.5278 16.4852 62.7999 16.3277C62.671 16.1701 62.5636 16.0054 62.4347 15.8837C61.7758 15.2392 61.1384 14.5731 60.4438 13.9644C59.2048 12.883 57.9659 11.8016 56.6768 10.7847C55.2517 9.66034 53.7191 8.67922 52.1006 7.86281C51.1625 7.39015 50.2171 6.92464 49.2289 6.5594C48.1904 6.17268 47.1091 5.85759 46.0277 5.62125C44.9893 5.39208 43.9294 5.28466 42.8694 5.15575C41.9384 5.04116 40.9931 4.91943 40.055 4.90511C38.6083 4.8857 37.1559 4.91878 35.7079 4.95172C35.5503 4.9553 35.3928 4.95888 35.2353 4.96239C34.3759 4.98387 33.5094 5.04831 32.65 5.09129C32.3635 5.10562 32.0771 5.12711 31.7906 5.15575C30.9957 5.23453 30.2079 5.32763 29.4201 5.4064C28.8615 5.46369 28.2958 5.4995 27.7372 5.54247C26.6415 5.6284 25.5529 5.73583 24.4644 5.78596C23.8584 5.81017 23.2524 5.77801 22.6465 5.74585C22.5363 5.74005 22.4261 5.73418 22.3159 5.72867C21.8289 5.70719 21.342 5.68571 20.8621 5.59261C19.7593 5.38493 18.6492 5.19156 17.5678 4.88361C15.9923 4.43243 14.4454 3.90249 12.8914 3.38686C12.3543 3.20782 11.8243 2.97865 11.2944 2.77097V6.24429C12.2509 6.24429 13.2049 6.24352 14.1574 6.24274C16.0576 6.24109 17.9513 6.2395 19.8452 6.24429C20.3465 6.25145 20.8478 6.28727 21.3491 6.30875C22.2801 6.35172 23.2183 6.38752 24.1564 6.43765C24.7795 6.47346 25.4097 6.51644 26.0327 6.56657C27.0497 6.64535 28.0666 6.72413 29.0764 6.82439C30.036 6.91749 30.9957 7.0249 31.9481 7.14665C33.1728 7.31136 34.4045 7.44744 35.6148 7.67661C37.3336 7.99888 39.0595 8.34262 40.7568 8.78664C43.1989 9.43117 45.6266 10.1545 48.0472 10.885C49.4867 11.3218 50.9047 11.816 52.3155 12.3316C54.0486 12.969 55.7745 13.6421 57.4861 14.3368C59.0115 14.9599 60.5225 15.633 62.0336 16.2919ZM116.046 6.17268V2.77097C115.172 3.1004 114.32 3.42267 113.446 3.72345C111.419 4.46825 109.35 5.06265 107.23 5.44221C106.249 5.61409 105.253 5.74299 104.265 5.76448C103.298 5.78739 102.325 5.73706 101.352 5.68665C101.108 5.67404 100.864 5.66136 100.62 5.6499C100.097 5.62842 99.5671 5.57113 99.0371 5.521C98.2637 5.44222 97.4974 5.34195 96.7311 5.27034C96.1439 5.21305 95.5495 5.17725 94.9551 5.13428C93.8307 5.04835 92.7135 4.91226 91.5892 4.89078C89.985 4.86214 88.3737 4.90511 86.7695 4.94807C85.9817 4.96955 85.2011 5.04833 84.4205 5.14143C83.3678 5.27034 82.3079 5.39209 81.2623 5.59978C79.5793 5.93637 77.9608 6.50928 76.4068 7.23976C74.5305 8.12062 72.7544 9.17337 71.1073 10.4266C69.9471 11.3075 68.8299 12.2528 67.7056 13.1767C67.3904 13.4345 67.104 13.7209 66.8104 14.0002C66.0298 14.7593 65.2563 15.5113 64.4757 16.2704C64.4972 16.3062 64.5187 16.3492 64.5402 16.385C64.6046 16.3802 64.6712 16.3819 64.7385 16.3834C64.871 16.3866 65.0035 16.3897 65.1131 16.3421C66.7388 15.6545 68.3429 14.9098 69.9829 14.2581C72.2173 13.37 74.466 12.5178 76.7362 11.7157C78.5624 11.0712 80.4244 10.4911 82.2864 9.94682C84.0982 9.41687 85.9244 8.92989 87.7649 8.49304C89.8203 8.00606 91.89 7.57636 93.9954 7.31854C95.2774 7.16815 96.5449 6.96763 97.8269 6.81725C98.7722 6.70983 99.7247 6.63104 100.677 6.55943C101.651 6.48781 102.632 6.42336 103.606 6.36607C104.523 6.30878 105.44 6.25866 106.356 6.23717C107.76 6.20136 109.164 6.17987 110.567 6.17271C111.704 6.16791 112.843 6.16956 113.982 6.17114C114.55 6.17193 115.12 6.17271 115.688 6.17271L116.046 6.17268ZM7.10488 6.75993C7.26959 6.73845 7.44862 6.70264 7.6205 6.69548C8.89525 6.66684 10.17 6.64535 11.4447 6.63103C13.364 6.60955 15.2833 6.58089 17.2026 6.56657C18.0978 6.56657 19.0001 6.59522 19.8953 6.63103C20.9266 6.66684 21.965 6.7098 22.9963 6.75993C24.0347 6.81722 25.0803 6.87452 26.1187 6.95329C27.0998 7.02491 28.0809 7.11085 29.0621 7.21111C30.0074 7.30421 30.9599 7.38299 31.898 7.54054C33.8531 7.85565 35.801 8.19224 37.7418 8.56464C40.2841 9.05162 42.7763 9.71048 45.2471 10.4768C47.1449 11.064 49.0427 11.6441 50.9118 12.3101C53.1176 13.0907 55.3018 13.9358 57.4789 14.7951C58.8826 15.3466 60.2576 15.9768 61.7185 16.607C61.6674 16.6198 61.6254 16.6335 61.5895 16.6452C61.5251 16.6662 61.4807 16.6807 61.4392 16.6714C60.6729 16.5354 59.9067 16.3921 59.1475 16.2561C58.238 16.0914 57.3214 15.9338 56.4118 15.7763C55.5023 15.6187 54.5857 15.454 53.6761 15.2964C52.7451 15.1317 51.807 14.9742 50.876 14.8095C50.0023 14.6591 49.1357 14.5087 48.262 14.3511C47.4313 14.2079 46.6077 14.0575 45.777 13.9071C44.6097 13.6923 43.4424 13.4703 42.2679 13.2697C40.9716 13.0406 39.6682 12.8401 38.372 12.6109C37.1116 12.3889 35.8512 12.1382 34.5836 11.9091C33.2873 11.6799 31.9839 11.4794 30.6877 11.2502C29.4273 11.0282 28.1669 10.7775 26.8993 10.5484C25.3667 10.2762 23.827 10.0327 22.2944 9.7606C20.7833 9.49563 19.2723 9.20201 17.7612 8.93704C16.465 8.70787 15.1616 8.50735 13.8653 8.27818C12.6049 8.05617 11.3445 7.80551 10.0769 7.57635C9.15306 7.41164 8.22922 7.26843 7.30539 7.11803C7.10487 7.11087 7.03326 7.00342 7.10488 6.75993ZM120.235 6.77426C120.3 7.03923 120.192 7.11086 119.985 7.14667C118.925 7.32571 117.872 7.51906 116.812 7.70526C115.881 7.86997 114.943 8.02037 114.012 8.17792C113.253 8.30683 112.494 8.43572 111.742 8.57179C110.811 8.7365 109.88 8.9084 108.949 9.08028C107.781 9.29513 106.614 9.51712 105.44 9.71764C104.143 9.94681 102.84 10.1473 101.544 10.3765C100.283 10.5985 99.0228 10.8492 97.7552 11.0783C96.3659 11.3218 94.9765 11.551 93.5872 11.7945C92.291 12.0236 91.0019 12.2671 89.7057 12.4963C88.3092 12.7398 86.9055 12.9689 85.5019 13.2124C84.3489 13.413 83.203 13.635 82.0572 13.8427C81.0331 14.0217 80.0019 14.1864 78.9778 14.3726C77.8104 14.5803 76.6431 14.8023 75.4686 15.01C74.1724 15.2391 72.869 15.4397 71.5728 15.6688C70.3195 15.8908 69.0734 16.1343 67.8201 16.3635C67.1684 16.4853 66.5167 16.5855 65.8579 16.7001C65.8156 16.7053 65.7741 16.6991 65.6924 16.6868C65.6631 16.6824 65.628 16.6772 65.5857 16.6714C66.2589 16.3635 66.839 16.077 67.4334 15.8264C68.7296 15.2821 70.033 14.745 71.3436 14.2294C72.8189 13.6493 74.3013 13.0835 75.7981 12.5536C77.3091 12.0165 78.8274 11.4722 80.3671 11.0139C82.6874 10.3192 85.0221 9.65318 87.371 9.05878C88.9895 8.65057 90.6439 8.3641 92.2838 8.06332C93.444 7.85564 94.6185 7.6981 95.7858 7.5477C96.7383 7.41879 97.6979 7.31853 98.6576 7.22543C99.7246 7.12517 100.792 7.04639 101.859 6.96762C102.561 6.91749 103.262 6.87452 103.964 6.83871C104.988 6.78858 106.012 6.7456 107.029 6.70979C107.903 6.68115 108.784 6.65968 109.658 6.64536C111.563 6.61672 113.475 6.58806 115.38 6.5809C116.311 6.5809 117.242 6.61672 118.173 6.64536C118.738 6.65969 119.304 6.68115 119.87 6.70979C119.985 6.70979 120.106 6.75278 120.235 6.77426ZM60.7517 17.0009C60.5082 17.2301 60.2791 17.4664 60.0284 17.6597C59.921 17.7457 59.7419 17.7958 59.6059 17.7672C58.2452 17.538 56.8845 17.2873 55.5238 17.0439C53.5043 16.6858 51.4847 16.3349 49.4652 15.9696C48.083 15.7261 46.7008 15.4612 45.3187 15.2177C43.7861 14.9455 42.2464 14.6877 40.7138 14.4156C39.4534 14.1936 38.2001 13.9501 36.9469 13.7281C35.7867 13.5204 34.6194 13.3342 33.452 13.1265C32.299 12.926 31.1532 12.704 30.0002 12.5034C29.0764 12.3387 28.1525 12.1955 27.2215 12.0308C26.3263 11.8732 25.4383 11.7085 24.5503 11.551C23.6193 11.3863 22.6811 11.2287 21.743 11.064C20.8478 10.9064 19.9598 10.7417 19.0717 10.5842C18.1407 10.4195 17.2026 10.2619 16.2716 10.0972C15.3836 9.93963 14.4884 9.77492 13.6003 9.61737C12.6693 9.45266 11.7312 9.2951 10.8002 9.13039C9.91217 8.97284 9.01698 8.80812 8.12896 8.65057C7.19796 8.48586 6.2598 8.3283 5.3288 8.16359C4.6771 8.049 4.01824 7.94158 3.36654 7.81267C3.27344 7.79834 3.20184 7.70525 3.07293 7.61931C3.56708 7.46892 4.00393 7.41163 4.34768 7.01775C23.118 10.3478 41.9456 13.6779 60.7517 17.0009ZM66.5525 17.0009C85.3873 13.6779 104.215 10.3622 123.05 7.03923C123.15 7.35434 123.737 7.64079 124.153 7.56918C124.272 7.77106 124.115 7.80622 124.001 7.83128C123.986 7.83472 123.972 7.83788 123.959 7.84132C123.558 7.92725 123.15 7.98455 122.742 8.05617C121.832 8.21372 120.916 8.37845 120.006 8.536C119.075 8.70071 118.137 8.85825 117.206 9.02296C116.311 9.18051 115.423 9.34524 114.535 9.50279C113.604 9.6675 112.665 9.82507 111.734 9.98978C110.839 10.1473 109.951 10.312 109.056 10.4624C108.111 10.6271 107.165 10.7847 106.22 10.9566L103.578 11.4292L100.742 11.9234L98.0989 12.3961C97.1894 12.5608 96.2728 12.7255 95.3632 12.8902C94.3033 13.0764 93.2506 13.2698 92.1907 13.456C91.2669 13.6135 90.343 13.7639 89.4192 13.9286C88.524 14.0862 87.636 14.2509 86.7408 14.4084C85.8313 14.5732 84.9146 14.7307 83.9979 14.8883C83.0813 15.053 82.1717 15.2105 81.2551 15.3752C80.3384 15.54 79.4289 15.6975 78.5122 15.8551C77.5955 16.0198 76.686 16.1773 75.7693 16.342C74.8527 16.5068 73.9432 16.6643 73.0265 16.8219C72.1241 16.9794 71.2218 17.1298 70.3194 17.2945C69.4171 17.4521 68.5147 17.6239 67.6124 17.7815C67.5336 17.7958 67.419 17.76 67.3546 17.7099C67.0968 17.4807 66.839 17.2444 66.5525 17.0009ZM68.3071 93.9513V93.4715C68.3071 68.929 68.3071 44.3793 68.2999 19.8369C68.2999 19.5432 68.2427 19.2496 68.1997 18.87C87.8723 15.3967 107.588 11.9234 127.339 8.44289V83.1732V83.1882C127.339 83.4224 127.339 83.5606 127.01 83.61C125.8 83.7891 124.604 84.0183 123.401 84.2331C122.376 84.4193 121.352 84.6198 120.328 84.7989C119.168 85.0065 118.001 85.1856 116.841 85.3933C115.817 85.5723 114.792 85.7728 113.768 85.9519C112.845 86.1166 111.921 86.2598 110.997 86.4174C110.109 86.5749 109.214 86.7396 108.326 86.8972C107.395 87.0619 106.456 87.2194 105.525 87.3842C104.652 87.5345 103.785 87.6849 102.912 87.8425C102.095 87.9857 101.279 88.1361 100.455 88.2865C99.2735 88.5014 98.099 88.7234 96.9173 88.9239C95.6211 89.1459 94.3177 89.3536 93.0215 89.5828C91.761 89.8048 90.5006 90.0554 89.233 90.2846C87.7005 90.5567 86.1607 90.8002 84.621 91.0723C83.1099 91.3373 81.5989 91.6309 80.0878 91.8959C78.6913 92.1466 77.2876 92.3686 75.884 92.6121C74.8599 92.7911 73.8358 92.9988 72.8117 93.185C71.6587 93.3855 70.5057 93.5789 69.3527 93.7722C69.0233 93.8295 68.6867 93.8868 68.3071 93.9513ZM59.0258 93.9584C58.1664 93.808 57.35 93.6577 56.5336 93.5144C55.7387 93.3712 54.9366 93.2351 54.1417 93.0991C53.2107 92.9344 52.2725 92.7768 51.3415 92.6121C50.4606 92.4617 49.5798 92.3041 48.6989 92.1466C47.7464 91.9819 46.7939 91.81 45.8415 91.6453L43.1989 91.1726C42.2535 91.0079 41.3082 90.8503 40.3701 90.6785C39.482 90.5209 38.5869 90.349 37.6988 90.1915C36.7893 90.0268 35.8726 89.8692 34.9631 89.7117C34.0536 89.5541 33.1369 89.3894 32.2274 89.2247C31.3179 89.06 30.4012 88.9024 29.4917 88.7449C28.5894 88.5873 27.687 88.4369 26.7847 88.2794C25.9754 88.1361 25.1662 87.9929 24.3641 87.8425C23.1824 87.6277 22.008 87.4057 20.8263 87.2051C19.5301 86.9831 18.2267 86.7754 16.9305 86.5534C15.67 86.3314 14.4096 86.0808 13.142 85.8516C11.6095 85.5795 10.0697 85.336 8.53 85.0639C7.01892 84.7989 5.50785 84.5053 3.99678 84.2403C2.74352 84.0183 1.49024 83.8034 0.229825 83.5958C0.0436248 83.5671 -0.00650697 83.4883 0.000653034 83.3236C0.00545303 83.2756 0.00380469 83.2241 0.00222469 83.174C0.00143469 83.1496 0.000653034 83.1253 0.000653034 83.1016V8.44292C0.680993 8.55751 1.32553 8.67209 1.97722 8.78667C2.92254 8.95138 3.86786 9.11609 4.80601 9.28081C5.69404 9.43836 6.58923 9.60308 7.47725 9.76779C8.38676 9.9325 9.30345 10.0901 10.213 10.2476C11.1225 10.4052 12.0391 10.5699 12.9487 10.7274C13.8797 10.8921 14.8178 11.0497 15.7488 11.2144C16.6368 11.372 17.532 11.5367 18.42 11.6942C19.351 11.8589 20.2892 12.0237 21.2202 12.1812C21.9865 12.3101 22.7599 12.439 23.5262 12.5751C24.4572 12.7398 25.3882 12.9117 26.3192 13.0836C27.4865 13.2984 28.6538 13.5204 29.8283 13.7209C31.1246 13.9501 32.428 14.1506 33.7242 14.3798C34.9774 14.6018 36.2236 14.8453 37.4768 15.0673C38.4006 15.232 39.3245 15.3752 40.2483 15.5328C41.1363 15.6904 42.0315 15.8551 42.9196 16.0126C43.8291 16.1773 44.7457 16.3349 45.6553 16.4924C46.5648 16.65 47.4814 16.8147 48.391 16.9723C49.322 17.137 50.2601 17.2945 51.1911 17.4592C51.9574 17.5882 52.7308 17.717 53.4971 17.8531C54.4209 18.0178 55.3376 18.1969 56.2614 18.3616C57.1495 18.5191 58.0447 18.6624 58.9399 18.8199C59.0186 18.8343 59.0902 18.8844 59.1189 18.8987C59.0903 19.3212 59.0401 19.7151 59.0401 20.1018C59.0354 36.3737 59.037 52.6487 59.0385 68.9225V68.9555V68.9884V69.0214C59.0393 77.174 59.0401 85.3267 59.0401 93.4786C59.0258 93.629 59.0258 93.7794 59.0258 93.9584ZM67.1469 18.6838C64.8266 20.0374 62.5206 20.0517 60.1788 18.7555C61.3246 16.7932 65.3351 16.342 67.1469 18.6838ZM59.7992 19.4716C62.406 20.8466 64.934 20.818 67.4835 19.443C67.4979 19.5647 67.5265 19.7079 67.5265 19.8512V34.8689C67.5265 54.6776 67.5265 74.4863 67.5337 94.295C67.5337 95.1902 67.1183 95.8634 66.438 96.3361C64.8338 97.4389 63.1222 97.4891 61.3963 96.6583C60.6157 96.2859 60.0499 95.67 59.835 94.8035C59.8064 94.6818 59.8064 94.5529 59.8064 94.424V19.887C59.7992 19.7509 59.7992 19.6292 59.7992 19.4716Z" fill="white"/>
</svg>
