<svg width="37" height="37" viewBox="0 0 37 37" fill="none" xmlns="http://www.w3.org/2000/svg">
<path d="M5.8252 15.275L21.2252 30.675" stroke="white" stroke-width="3.3" stroke-linecap="round"/>
<path d="M0.757135 32.2072C-0.219175 33.1836 -0.219175 34.7665 0.757135 35.7428C1.73345 36.7191 3.31636 36.7191 4.29267 35.7428L0.757135 32.2072ZM10.6571 22.3072L0.757135 32.2072L4.29267 35.7428L14.1927 25.8428L10.6571 22.3072Z" fill="white"/>
<path d="M11.875 20.225L30.575 1.52499H34.975V5.92499L16.275 24.625" stroke="white" stroke-width="2.2"/>
<path d="M14.0752 18.025V22.425H18.4752" stroke="white" stroke-width="2.2"/>
<path d="M17.3748 16.925H15.1748V21.325H19.5748V19.125H21.7748V16.925H23.9748V14.725H26.1748V12.525H28.3748V10.325H30.5748V8.12499H32.7748V5.92499H34.9748V3.72499H32.7748V1.52499H30.5748V3.72499H28.3748V5.92499H26.1748V8.12499H23.9748V10.325H21.7748V12.525H19.5748V14.725H17.3748V16.925Z" stroke="white" stroke-width="2.2"/>
</svg>
